# xmcd CD database file generated by Grip 3.0.5
# 
# Track frame offsets:
#       150
#       14197
#       27037
#       38915
#       53157
#       66715
#       78342
#       92945
#       106702
#       119365
#       133907
#       147257
#       160492
#       172787
#       185935
#       197367
#       210537
#       223640
#       237255
#       249425
#       260427
#       273030
# 
# Disc length: 3761 seconds
# 
# Revision: 2
# Processed by: cddbd v1.5.1PL0 Copyright (c) Steve Scherf et al.
# Submitted via: Grip 3.0.5
# 
DISCID=420eaf16
DTITLE=Arthur "Big Boy" Crudup - That's All Right Mama
DYEAR=1954
DGENRE=Blues
TTITLE0=If I Get Lucky
TTITLE1=Gonna Follow My Baby
TTITLE2=Mean Old Frisco Blues
TTITLE3=Cool Disposition
TTITLE4=Rock Me Mama
TTITLE5=Keep Your Arms Around Me
TTITLE6=That's Your Red Wagon
TTITLE7=She's Gone
TTITLE8=So Glad Your're Mine
TTITLE9=Chicago Blues
TTITLE10=Crudup's After Hours
TTITLE11=That's All Right
TTITLE12=Shout, Sister, Shout
TTITLE13=She Ain't Nothin' But Trouble
TTITLE14=My Baby Left Me
TTITLE15=Too Much Competition
TTITLE16=Second Man Blues
TTITLE17=I'm Gonna Dig Myself A Hole
TTITLE18=Mr. So and So
TTITLE19=My Wife And Woman
TTITLE20=I Love You
TTITLE21=She's Got No Hair
EXTD=
EXTT0=
EXTT1=
EXTT2=
EXTT3=
EXTT4=
EXTT5=
EXTT6=
EXTT7=
EXTT8=
EXTT9=
EXTT10=
EXTT11=
EXTT12=
EXTT13=
EXTT14=
EXTT15=
EXTT16=
EXTT17=
EXTT18=
EXTT19=
EXTT20=
EXTT21=
PLAYORDER=
